<?xml version="1.0" encoding="UTF-8" standalone="no"?>
<svg
   xmlns:dc="http://purl.org/dc/elements/1.1/"
   xmlns:cc="http://creativecommons.org/ns#"
   xmlns:rdf="http://www.w3.org/1999/02/22-rdf-syntax-ns#"
   xmlns:svg="http://www.w3.org/2000/svg"
   xmlns="http://www.w3.org/2000/svg"
   xmlns:sodipodi="http://sodipodi.sourceforge.net/DTD/sodipodi-0.dtd"
   xmlns:inkscape="http://www.inkscape.org/namespaces/inkscape"
   version="1.1"
   width="10cm"
   height="3cm"
   viewBox="0 0 39370.106 11811.035"
   id="svg4839"
   sodipodi:docname="XTAL_Set.sch.svg"
   inkscape:version="0.92.2 (5c3e80d, 2017-08-06)"
   inkscape:export-filename="C:\Users\zelazko\Documents\Scripts\DSA815\Fixture\images\XTAL_Set.sch.png"
   inkscape:export-xdpi="96"
   inkscape:export-ydpi="96">
  <metadata
     id="metadata4845">
    <rdf:RDF>
      <cc:Work
         rdf:about="">
        <dc:format>image/svg+xml</dc:format>
        <dc:type
           rdf:resource="http://purl.org/dc/dcmitype/StillImage" />
        <dc:title>SVG Picture created as XTAL_Set.sch.svg date 2017/08/28 20:37:45 </dc:title>
      </cc:Work>
    </rdf:RDF>
  </metadata>
  <defs
     id="defs4843" />
  <sodipodi:namedview
     pagecolor="#ffffff"
     bordercolor="#666666"
     borderopacity="1"
     objecttolerance="10"
     gridtolerance="10"
     guidetolerance="10"
     inkscape:pageopacity="0"
     inkscape:pageshadow="2"
     inkscape:window-width="3200"
     inkscape:window-height="1675"
     id="namedview4841"
     showgrid="false"
     showborder="true"
     inkscape:zoom="1.7613103"
     inkscape:cx="152.02005"
     inkscape:cy="-10.65184"
     inkscape:window-x="-13"
     inkscape:window-y="-13"
     inkscape:window-maximized="1"
     inkscape:current-layer="svg4839" />
  <title
     id="title4273">SVG Picture created as XTAL_Set.sch.svg date 2017/08/28 20:37:45 </title>
  <desc
     id="desc4275">Picture generated by Eeschema-SVG </desc>
  <g
     style="fill:#000000;fill-opacity:1;stroke:#000000;stroke-linecap:round;stroke-linejoin:round;stroke-opacity:1"
     id="g4277"
     transform="translate(-42629.573,-28419.394)" />
  <g
     style="fill:#000000;fill-opacity:0;stroke:#000000;stroke-width:0;stroke-linecap:round;stroke-linejoin:round;stroke-opacity:1"
     id="g4279"
     transform="translate(-42629.573,-28419.394)" />
  <g
     style="fill:#840000;fill-opacity:0;stroke:#840000;stroke-width:0;stroke-linecap:round;stroke-linejoin:round;stroke-opacity:1"
     id="g4281"
     transform="translate(-42629.573,-28419.394)" />
  <g
     style="fill:#840000;fill-opacity:0;stroke:#840000;stroke-width:100;stroke-linecap:round;stroke-linejoin:round;stroke-opacity:1"
     id="g4285"
     transform="translate(-38075.668,-29897.934)">
    <rect
       x="48100"
       y="36000"
       width="800"
       height="2000"
       rx="0"
       id="rect4283" />
  </g>
  <g
     style="fill:#840000;fill-opacity:0;stroke:#840000;stroke-width:60;stroke-linecap:round;stroke-linejoin:round;stroke-opacity:1"
     id="g4291"
     transform="translate(-38075.668,-29897.934)">
    <path
       d="m 48500,36000 v -500"
       id="path4287"
       inkscape:connector-curvature="0" />
    <path
       d="m 48500,38000 v 500"
       id="path4289"
       inkscape:connector-curvature="0" />
  </g>
  <g
     style="fill:#008484;fill-opacity:0;stroke:#008484;stroke-width:60;stroke-linecap:round;stroke-linejoin:round;stroke-opacity:1"
     id="g4313"
     transform="translate(-38075.668,-29897.934)">
    <path
       d="m 49500,37090 -240,160"
       id="path4293"
       inkscape:connector-curvature="0" />
    <path
       d="m 49500,37370 h -500 v -190 l 20,-50 20,-20 50,-20 h 70 l 50,20 20,20 30,50 v 190"
       id="path4295"
       inkscape:connector-curvature="0" />
    <path
       d="m 49500,36610 v 280"
       id="path4297"
       inkscape:connector-curvature="0" />
    <path
       d="m 49500,36750 h -500 l 70,50 50,50 20,40"
       id="path4299"
       inkscape:connector-curvature="0" />
    <path
       d="m 48700,37590 v 280"
       id="path4301"
       inkscape:connector-curvature="0" />
    <path
       d="m 48700,37730 h -500 l 70,50 50,50 20,40"
       id="path4303"
       inkscape:connector-curvature="0" />
    <path
       d="m 48200,37130 v 240 l 230,20 -20,-20 -20,-50 v -120 l 20,-40 20,-30 50,-20 h 120 l 50,20 20,30 30,40 v 120 l -30,50 -20,20"
       id="path4305"
       inkscape:connector-curvature="0" />
    <path
       d="m 48410,36820 -20,50 -30,20 -40,20 h -30 l -50,-20 -20,-20 -20,-50 v -100 l 20,-40 20,-30 50,-20 h 30 l 40,20 30,30 20,40 v 100 l 20,50 30,20 50,20 h 90 l 50,-20 20,-20 30,-50 v -100 l -30,-40 -20,-30 -50,-20 h -90 l -50,20 -30,30 -20,40"
       id="path4307"
       inkscape:connector-curvature="0" />
    <path
       d="m 48700,36130 -240,160"
       id="path4309"
       inkscape:connector-curvature="0" />
    <path
       d="m 48700,36410 h -500 v -190 l 20,-50 20,-20 50,-20 h 70 l 50,20 20,20 30,50 v 190"
       id="path4311"
       inkscape:connector-curvature="0" />
  </g>
  <g
     style="fill:#008484;fill-opacity:0;stroke:#008484;stroke-width:0;stroke-linecap:round;stroke-linejoin:round;stroke-opacity:1"
     id="g4315"
     transform="translate(-42629.573,-28419.394)" />
  <g
     style="fill:#840000;fill-opacity:0;stroke:#840000;stroke-width:0;stroke-linecap:round;stroke-linejoin:round;stroke-opacity:1"
     id="g4317"
     transform="translate(-42629.573,-28419.394)" />
  <g
     style="fill:#840000;fill-opacity:0;stroke:#840000;stroke-width:100;stroke-linecap:round;stroke-linejoin:round;stroke-opacity:1"
     id="g4321"
     transform="translate(-38075.668,-29897.934)">
    <rect
       x="49500"
       y="34600"
       width="2000"
       height="800"
       rx="0"
       id="rect4319" />
  </g>
  <g
     style="fill:#840000;fill-opacity:0;stroke:#840000;stroke-width:60;stroke-linecap:round;stroke-linejoin:round;stroke-opacity:1"
     id="g4327"
     transform="translate(-38075.668,-29897.934)">
    <path
       d="m 51500,35000 h 500"
       id="path4323"
       inkscape:connector-curvature="0" />
    <path
       d="m 49500,35000 h -500"
       id="path4325"
       inkscape:connector-curvature="0" />
  </g>
  <g
     style="fill:#008484;fill-opacity:0;stroke:#008484;stroke-width:60;stroke-linecap:round;stroke-linejoin:round;stroke-opacity:1"
     id="g4345"
     transform="translate(-38075.668,-29897.934)">
    <path
       d="m 50410,36000 -160,-240"
       id="path4329"
       inkscape:connector-curvature="0" />
    <path
       d="m 50130,36000 v -500 h 190 l 50,20 20,20 20,50 v 70 l -20,50 -20,20 -50,30 h -190"
       id="path4331"
       inkscape:connector-curvature="0" />
    <path
       d="m 50610,35540 20,-20 50,-20 h 120 l 40,20 30,20 20,50 v 50 l -20,70 -290,290 h 310"
       id="path4333"
       inkscape:connector-curvature="0" />
    <path
       d="m 49860,34700 h -90 l -50,20 -20,20 -50,80 -20,90 v 190 l 20,50 20,20 50,30 h 100 l 40,-30 30,-20 20,-50 v -120 l -20,-50 -30,-20 -40,-20 h -100 l -50,20 -20,20 -20,50"
       id="path4335"
       inkscape:connector-curvature="0" />
    <path
       d="m 50340,34700 h -90 l -50,20 -20,20 -50,80 -20,90 v 190 l 20,50 20,20 50,30 h 100 l 40,-30 30,-20 20,-50 v -120 l -20,-50 -30,-20 -40,-20 h -100 l -50,20 -20,20 -20,50"
       id="path4337"
       inkscape:connector-curvature="0" />
    <path
       d="m 50890,35200 -160,-240"
       id="path4339"
       inkscape:connector-curvature="0" />
    <path
       d="m 50610,35200 v -500 h 190 l 50,20 20,20 20,50 v 70 l -20,50 -20,20 -50,30 h -190"
       id="path4341"
       inkscape:connector-curvature="0" />
    <path
       d="m 51350,34700 h -240 l -20,230 20,-20 50,-20 h 120 l 40,20 30,20 20,50 v 120 l -20,50 -30,20 -40,30 h -120 l -50,-30 -20,-20"
       id="path4343"
       inkscape:connector-curvature="0" />
  </g>
  <g
     style="fill:#008484;fill-opacity:0;stroke:#008484;stroke-width:0;stroke-linecap:round;stroke-linejoin:round;stroke-opacity:1"
     id="g4347"
     transform="translate(-42629.573,-28419.394)" />
  <g
     style="fill:#840000;fill-opacity:0;stroke:#840000;stroke-width:0;stroke-linecap:round;stroke-linejoin:round;stroke-opacity:1"
     id="g4349"
     transform="translate(-42629.573,-28419.394)" />
  <g
     style="fill:#840000;fill-opacity:0;stroke:#840000;stroke-width:100;stroke-linecap:round;stroke-linejoin:round;stroke-opacity:1"
     id="g4353"
     transform="translate(-38075.668,-29897.934)">
    <rect
       x="52100"
       y="36000"
       width="800"
       height="2000"
       rx="0"
       id="rect4351" />
  </g>
  <g
     style="fill:#840000;fill-opacity:0;stroke:#840000;stroke-width:60;stroke-linecap:round;stroke-linejoin:round;stroke-opacity:1"
     id="g4359"
     transform="translate(-38075.668,-29897.934)">
    <path
       d="m 52500,36000 v -500"
       id="path4355"
       inkscape:connector-curvature="0" />
    <path
       d="m 52500,38000 v 500"
       id="path4357"
       inkscape:connector-curvature="0" />
  </g>
  <g
     style="fill:#008484;fill-opacity:0;stroke:#008484;stroke-width:60;stroke-linecap:round;stroke-linejoin:round;stroke-opacity:1"
     id="g4381"
     transform="translate(-38075.668,-29897.934)">
    <path
       d="m 53500,37090 -240,160"
       id="path4361"
       inkscape:connector-curvature="0" />
    <path
       d="m 53500,37370 h -500 v -190 l 20,-50 20,-20 50,-20 h 70 l 50,20 20,20 30,50 v 190"
       id="path4363"
       inkscape:connector-curvature="0" />
    <path
       d="m 53000,36920 v -310 l 190,170 v -80 l 20,-40 20,-30 50,-20 h 120 l 50,20 20,30 30,40 v 150 l -30,40 -20,30"
       id="path4365"
       inkscape:connector-curvature="0" />
    <path
       d="m 52700,37590 v 280"
       id="path4367"
       inkscape:connector-curvature="0" />
    <path
       d="m 52700,37730 h -500 l 70,50 50,50 20,40"
       id="path4369"
       inkscape:connector-curvature="0" />
    <path
       d="m 52360,37160 h 340"
       id="path4371"
       inkscape:connector-curvature="0" />
    <path
       d="m 52170,37280 360,110 v -300"
       id="path4373"
       inkscape:connector-curvature="0" />
    <path
       d="m 52700,36610 -240,160"
       id="path4375"
       inkscape:connector-curvature="0" />
    <path
       d="m 52700,36890 h -500 v -190 l 20,-50 20,-20 50,-20 h 70 l 50,20 20,20 30,50 v 190"
       id="path4377"
       inkscape:connector-curvature="0" />
    <path
       d="m 52200,36440 v -310 l 190,170 v -80 l 20,-40 20,-30 50,-20 h 120 l 50,20 20,30 30,40 v 150 l -30,40 -20,30"
       id="path4379"
       inkscape:connector-curvature="0" />
  </g>
  <g
     style="fill:#008484;fill-opacity:0;stroke:#008484;stroke-width:0;stroke-linecap:round;stroke-linejoin:round;stroke-opacity:1"
     id="g4383"
     transform="translate(-42629.573,-28419.394)" />
  <g
     style="fill:#840000;fill-opacity:0;stroke:#840000;stroke-width:0;stroke-linecap:round;stroke-linejoin:round;stroke-opacity:1"
     id="g4385"
     transform="translate(-42629.573,-28419.394)" />
  <g
     style="fill:#840000;fill-opacity:0;stroke:#840000;stroke-width:100;stroke-linecap:round;stroke-linejoin:round;stroke-opacity:1"
     id="g4389"
     transform="translate(-38075.668,-29897.934)">
    <rect
       x="62100"
       y="36000"
       width="800"
       height="2000"
       rx="0"
       id="rect4387" />
  </g>
  <g
     style="fill:#840000;fill-opacity:0;stroke:#840000;stroke-width:60;stroke-linecap:round;stroke-linejoin:round;stroke-opacity:1"
     id="g4395"
     transform="translate(-38075.668,-29897.934)">
    <path
       d="m 62500,36000 v -500"
       id="path4391"
       inkscape:connector-curvature="0" />
    <path
       d="m 62500,38000 v 500"
       id="path4393"
       inkscape:connector-curvature="0" />
  </g>
  <g
     style="fill:#008484;fill-opacity:0;stroke:#008484;stroke-width:60;stroke-linecap:round;stroke-linejoin:round;stroke-opacity:1"
     id="g4419"
     transform="translate(-38075.668,-29897.934)">
    <path
       d="m 63500,37090 -240,160"
       id="path4397"
       inkscape:connector-curvature="0" />
    <path
       d="m 63500,37370 h -500 v -190 l 20,-50 20,-20 50,-20 h 70 l 50,20 20,20 30,50 v 190"
       id="path4399"
       inkscape:connector-curvature="0" />
    <path
       d="m 63160,36660 h 340"
       id="path4401"
       inkscape:connector-curvature="0" />
    <path
       d="m 62970,36780 360,110 v -300"
       id="path4403"
       inkscape:connector-curvature="0" />
    <path
       d="m 62700,37590 v 280"
       id="path4405"
       inkscape:connector-curvature="0" />
    <path
       d="m 62700,37730 h -500 l 70,50 50,50 20,40"
       id="path4407"
       inkscape:connector-curvature="0" />
    <path
       d="m 62360,37160 h 340"
       id="path4409"
       inkscape:connector-curvature="0" />
    <path
       d="m 62170,37280 360,110 v -300"
       id="path4411"
       inkscape:connector-curvature="0" />
    <path
       d="m 62700,36610 -240,160"
       id="path4413"
       inkscape:connector-curvature="0" />
    <path
       d="m 62700,36890 h -500 v -190 l 20,-50 20,-20 50,-20 h 70 l 50,20 20,20 30,50 v 190"
       id="path4415"
       inkscape:connector-curvature="0" />
    <path
       d="m 62200,36440 v -310 l 190,170 v -80 l 20,-40 20,-30 50,-20 h 120 l 50,20 20,30 30,40 v 150 l -30,40 -20,30"
       id="path4417"
       inkscape:connector-curvature="0" />
  </g>
  <g
     style="fill:#008484;fill-opacity:0;stroke:#008484;stroke-width:0;stroke-linecap:round;stroke-linejoin:round;stroke-opacity:1"
     id="g4421"
     transform="translate(-42629.573,-28419.394)" />
  <g
     style="fill:#840000;fill-opacity:0;stroke:#840000;stroke-width:0;stroke-linecap:round;stroke-linejoin:round;stroke-opacity:1"
     id="g4423"
     transform="translate(-42629.573,-28419.394)" />
  <g
     style="fill:#840000;fill-opacity:0;stroke:#840000;stroke-width:100;stroke-linecap:round;stroke-linejoin:round;stroke-opacity:1"
     id="g4427"
     transform="translate(-38075.668,-29897.934)">
    <rect
       x="63500"
       y="34600"
       width="2000"
       height="800"
       rx="0"
       id="rect4425" />
  </g>
  <g
     style="fill:#840000;fill-opacity:0;stroke:#840000;stroke-width:60;stroke-linecap:round;stroke-linejoin:round;stroke-opacity:1"
     id="g4433"
     transform="translate(-38075.668,-29897.934)">
    <path
       d="m 65500,35000 h 500"
       id="path4429"
       inkscape:connector-curvature="0" />
    <path
       d="m 63500,35000 h -500"
       id="path4431"
       inkscape:connector-curvature="0" />
  </g>
  <g
     style="fill:#008484;fill-opacity:0;stroke:#008484;stroke-width:60;stroke-linecap:round;stroke-linejoin:round;stroke-opacity:1"
     id="g4451"
     transform="translate(-38075.668,-29897.934)">
    <path
       d="m 64410,36000 -160,-240"
       id="path4435"
       inkscape:connector-curvature="0" />
    <path
       d="m 64130,36000 v -500 h 190 l 50,20 20,20 20,50 v 70 l -20,50 -20,20 -50,30 h -190"
       id="path4437"
       inkscape:connector-curvature="0" />
    <path
       d="m 64870,35500 h -240 l -20,230 20,-20 50,-20 h 120 l 40,20 30,20 20,50 v 120 l -20,50 -30,20 -40,30 h -120 l -50,-30 -20,-20"
       id="path4439"
       inkscape:connector-curvature="0" />
    <path
       d="m 63860,34700 h -90 l -50,20 -20,20 -50,80 -20,90 v 190 l 20,50 20,20 50,30 h 100 l 40,-30 30,-20 20,-50 v -120 l -20,-50 -30,-20 -40,-20 h -100 l -50,20 -20,20 -20,50"
       id="path4441"
       inkscape:connector-curvature="0" />
    <path
       d="m 64340,34700 h -90 l -50,20 -20,20 -50,80 -20,90 v 190 l 20,50 20,20 50,30 h 100 l 40,-30 30,-20 20,-50 v -120 l -20,-50 -30,-20 -40,-20 h -100 l -50,20 -20,20 -20,50"
       id="path4443"
       inkscape:connector-curvature="0" />
    <path
       d="m 64890,35200 -160,-240"
       id="path4445"
       inkscape:connector-curvature="0" />
    <path
       d="m 64610,35200 v -500 h 190 l 50,20 20,20 20,50 v 70 l -20,50 -20,20 -50,30 h -190"
       id="path4447"
       inkscape:connector-curvature="0" />
    <path
       d="m 65350,34700 h -240 l -20,230 20,-20 50,-20 h 120 l 40,20 30,20 20,50 v 120 l -20,50 -30,20 -40,30 h -120 l -50,-30 -20,-20"
       id="path4449"
       inkscape:connector-curvature="0" />
  </g>
  <g
     style="fill:#008484;fill-opacity:0;stroke:#008484;stroke-width:0;stroke-linecap:round;stroke-linejoin:round;stroke-opacity:1"
     id="g4453"
     transform="translate(-42629.573,-28419.394)" />
  <g
     style="fill:#840000;fill-opacity:0;stroke:#840000;stroke-width:0;stroke-linecap:round;stroke-linejoin:round;stroke-opacity:1"
     id="g4455"
     transform="translate(-42629.573,-28419.394)" />
  <g
     style="fill:#840000;fill-opacity:0;stroke:#840000;stroke-width:100;stroke-linecap:round;stroke-linejoin:round;stroke-opacity:1"
     id="g4459"
     transform="translate(-38075.668,-29897.934)">
    <rect
       x="66100"
       y="36000"
       width="800"
       height="2000"
       rx="0"
       id="rect4457" />
  </g>
  <g
     style="fill:#840000;fill-opacity:0;stroke:#840000;stroke-width:60;stroke-linecap:round;stroke-linejoin:round;stroke-opacity:1"
     id="g4465"
     transform="translate(-38075.668,-29897.934)">
    <path
       d="m 66500,36000 v -500"
       id="path4461"
       inkscape:connector-curvature="0" />
    <path
       d="m 66500,38000 v 500"
       id="path4463"
       inkscape:connector-curvature="0" />
  </g>
  <g
     style="fill:#008484;fill-opacity:0;stroke:#008484;stroke-width:60;stroke-linecap:round;stroke-linejoin:round;stroke-opacity:1"
     id="g4485"
     transform="translate(-38075.668,-29897.934)">
    <path
       d="m 67500,37090 -240,160"
       id="path4467"
       inkscape:connector-curvature="0" />
    <path
       d="m 67500,37370 h -500 v -190 l 20,-50 20,-20 50,-20 h 70 l 50,20 20,20 30,50 v 190"
       id="path4469"
       inkscape:connector-curvature="0" />
    <path
       d="m 67000,36660 v 90 l 20,50 20,20 80,50 90,20 h 190 l 50,-20 20,-20 30,-50 v -100 l -30,-40 -20,-30 -50,-20 h -120 l -50,20 -20,30 -20,40 v 100 l 20,50 20,20 50,20"
       id="path4471"
       inkscape:connector-curvature="0" />
    <path
       d="m 66700,37590 v 280"
       id="path4473"
       inkscape:connector-curvature="0" />
    <path
       d="m 66700,37730 h -500 l 70,50 50,50 20,40"
       id="path4475"
       inkscape:connector-curvature="0" />
    <path
       d="m 66200,37130 v 240 l 230,20 -20,-20 -20,-50 v -120 l 20,-40 20,-30 50,-20 h 120 l 50,20 20,30 30,40 v 120 l -30,50 -20,20"
       id="path4477"
       inkscape:connector-curvature="0" />
    <path
       d="m 66410,36820 -20,50 -30,20 -40,20 h -30 l -50,-20 -20,-20 -20,-50 v -100 l 20,-40 20,-30 50,-20 h 30 l 40,20 30,30 20,40 v 100 l 20,50 30,20 50,20 h 90 l 50,-20 20,-20 30,-50 v -100 l -30,-40 -20,-30 -50,-20 h -90 l -50,20 -30,30 -20,40"
       id="path4479"
       inkscape:connector-curvature="0" />
    <path
       d="m 66700,36130 -240,160"
       id="path4481"
       inkscape:connector-curvature="0" />
    <path
       d="m 66700,36410 h -500 v -190 l 20,-50 20,-20 50,-20 h 70 l 50,20 20,20 30,50 v 190"
       id="path4483"
       inkscape:connector-curvature="0" />
  </g>
  <g
     style="fill:#008484;fill-opacity:0;stroke:#008484;stroke-width:0;stroke-linecap:round;stroke-linejoin:round;stroke-opacity:1"
     id="g4487"
     transform="translate(-42629.573,-28419.394)" />
  <g
     style="fill:#840000;fill-opacity:0;stroke:#840000;stroke-width:0;stroke-linecap:round;stroke-linejoin:round;stroke-opacity:1"
     id="g4489"
     transform="translate(-42629.573,-28419.394)" />
  <g
     style="fill:#840000;fill-opacity:0;stroke:#840000;stroke-width:60;stroke-linecap:round;stroke-linejoin:round;stroke-opacity:1"
     id="g4513"
     transform="translate(-38075.668,-29897.934)">
    <rect
       x="58450"
       y="32400"
       width="100"
       height="600"
       rx="0"
       id="rect4491" />
    <rect
       x="57450"
       y="32400"
       width="100"
       height="600"
       rx="0"
       id="rect4493" />
    <rect
       x="56450"
       y="32400"
       width="100"
       height="600"
       rx="0"
       id="rect4495" />
    <rect
       x="56000"
       y="32000"
       width="3000"
       height="1000"
       rx="0"
       id="rect4497" />
    <path
       d="m 56500,33000 v 1500"
       id="path4499"
       inkscape:connector-curvature="0" />
    <path
       d="m 56380,33610 v 280"
       id="path4501"
       inkscape:connector-curvature="0" />
    <path
       d="m 56380,33750 h -500 l 70,50 50,50 20,40"
       id="path4503"
       inkscape:connector-curvature="0" />
    <path
       d="m 57500,33000 v 1500"
       id="path4505"
       inkscape:connector-curvature="0" />
    <path
       d="m 56920,33890 -20,-20 -20,-50 v -120 l 20,-40 20,-30 50,-20 h 50 l 70,20 290,290 v -310"
       id="path4507"
       inkscape:connector-curvature="0" />
    <path
       d="m 58500,33000 v 1500"
       id="path4509"
       inkscape:connector-curvature="0" />
    <path
       d="m 57880,33920 v -310 l 190,170 v -80 l 20,-40 20,-30 50,-20 h 120 l 50,20 20,30 30,40 v 150 l -30,40 -20,30"
       id="path4511"
       inkscape:connector-curvature="0" />
  </g>
  <g
     style="fill:#008484;fill-opacity:0;stroke:#008484;stroke-width:60;stroke-linecap:round;stroke-linejoin:round;stroke-opacity:1"
     id="g4543"
     transform="translate(-38075.668,-29897.934)">
    <path
       d="m 55700,32870 h -500 v -190 l 20,-50 20,-20 50,-20 h 70 l 50,20 20,20 30,50 v 190"
       id="path4515"
       inkscape:connector-curvature="0" />
    <path
       d="m 55240,32390 -20,-20 -20,-50 v -120 l 20,-40 20,-30 50,-20 h 50 l 70,20 290,290 v -310"
       id="path4517"
       inkscape:connector-curvature="0" />
    <path
       d="m 55480,31710 -20,20 -70,30 h -50 l -70,-30 -50,-50 -20,-40 -20,-100 v -70 l 20,-90 20,-50 50,-50 70,-20 h 50 l 70,20 20,20"
       id="path4519"
       inkscape:connector-curvature="0" />
    <path
       d="m 55790,31260 h 100 l 50,20 40,50 30,90 v 170 l -30,90 -40,50 -50,30 h -100 l -40,-30 -50,-50 -20,-90 v -170 l 20,-90 50,-50 40,-20"
       id="path4521"
       inkscape:connector-curvature="0" />
    <path
       d="m 56220,31760 v -500 l 280,500 v -500"
       id="path4523"
       inkscape:connector-curvature="0" />
    <path
       d="m 56740,31760 v -500 l 280,500 v -500"
       id="path4525"
       inkscape:connector-curvature="0" />
    <path
       d="m 57140,31800 h 380"
       id="path4527"
       inkscape:connector-curvature="0" />
    <path
       d="m 57730,31260 h 50 l 50,20 20,20 30,50 20,100 v 120 l -20,90 -30,50 -20,20 -50,30 h -50 l -40,-30 -30,-20 -20,-50 -20,-90 v -120 l 20,-100 20,-50 30,-20 40,-20"
       id="path4529"
       inkscape:connector-curvature="0" />
    <path
       d="m 58380,31760 h -280"
       id="path4531"
       inkscape:connector-curvature="0" />
    <path
       d="m 58240,31760 v -500 l -50,70 -50,50 -40,20"
       id="path4533"
       inkscape:connector-curvature="0" />
    <path
       d="m 58550,31260 330,500"
       id="path4535"
       inkscape:connector-curvature="0" />
    <path
       d="m 58880,31260 -330,500"
       id="path4537"
       inkscape:connector-curvature="0" />
    <path
       d="m 59170,31260 h 50 l 50,20 20,20 30,50 20,100 v 120 l -20,90 -30,50 -20,20 -50,30 h -50 l -40,-30 -30,-20 -20,-50 -20,-90 v -120 l 20,-100 20,-50 30,-20 40,-20"
       id="path4539"
       inkscape:connector-curvature="0" />
    <path
       d="m 59510,31260 h 310 l -170,190 h 80 l 40,20 30,20 20,50 v 120 l -20,50 -30,20 -40,30 h -150 l -40,-30 -30,-20"
       id="path4541"
       inkscape:connector-curvature="0" />
  </g>
  <g
     style="fill:#008484;fill-opacity:0;stroke:#008484;stroke-width:0;stroke-linecap:round;stroke-linejoin:round;stroke-opacity:1"
     id="g4545"
     transform="translate(-42629.573,-28419.394)" />
  <g
     style="fill:#840000;fill-opacity:0;stroke:#840000;stroke-width:0;stroke-linecap:round;stroke-linejoin:round;stroke-opacity:1"
     id="g4547"
     transform="translate(-42629.573,-28419.394)" />
  <g
     style="fill:#840000;fill-opacity:0;stroke:#840000;stroke-width:80;stroke-linecap:round;stroke-linejoin:round;stroke-opacity:1"
     id="g4551"
     transform="translate(-38075.668,-29897.934)">
    <circle
       cx="44000"
       cy="35000"
       r="200"
       id="circle4549" />
  </g>
  <g
     style="fill:#840000;fill-opacity:0;stroke:#840000;stroke-width:120;stroke-linecap:round;stroke-linejoin:round;stroke-opacity:1"
     id="g4555"
     transform="translate(-38075.668,-29897.934)">
    <circle
       cx="44000"
       cy="35000"
       r="700"
       id="circle4553" />
  </g>
  <g
     style="fill:#840000;fill-opacity:0;stroke:#840000;stroke-width:60;stroke-linecap:round;stroke-linejoin:round;stroke-opacity:1"
     id="g4567"
     transform="translate(-38075.668,-29897.934)">
    <path
       d="m 44200,35000 h 1300"
       id="path4557"
       inkscape:connector-curvature="0" />
    <path
       d="m 44960,34880 h -220"
       id="path4559"
       inkscape:connector-curvature="0" />
    <path
       d="m 44850,34880 v -400 l -40,60 -40,40 -30,20"
       id="path4561"
       inkscape:connector-curvature="0" />
    <path
       d="m 44000,35700 v 1300"
       id="path4563"
       inkscape:connector-curvature="0" />
    <path
       d="m 43520,36460 -20,-20 -20,-30 v -100 l 20,-40 20,-20 40,-10 h 40 l 50,10 230,230 v -240"
       id="path4565"
       inkscape:connector-curvature="0" />
  </g>
  <g
     style="fill:#008484;fill-opacity:0;stroke:#008484;stroke-width:60;stroke-linecap:round;stroke-linejoin:round;stroke-opacity:1"
     id="g4581"
     transform="translate(-38075.668,-29897.934)">
    <path
       d="m 43530,34000 v -500 h 190 l 50,20 20,20 20,50 v 70 l -20,50 -20,20 -50,30 h -190"
       id="path4569"
       inkscape:connector-curvature="0" />
    <path
       d="m 44290,34000 h -280"
       id="path4571"
       inkscape:connector-curvature="0" />
    <path
       d="m 44150,34000 v -500 l -50,70 -50,50 -40,20"
       id="path4573"
       inkscape:connector-curvature="0" />
    <path
       d="m 42890,36070 30,-70 20,-20 50,-20 h 70 l 50,20 20,20 30,50 v 190 h -500 v -170 l 20,-40 20,-30 50,-20 h 50 l 50,20 20,30 20,40 v 170"
       id="path4575"
       inkscape:connector-curvature="0" />
    <path
       d="m 43160,35740 h -500 l 500,-280 h -500"
       id="path4577"
       inkscape:connector-curvature="0" />
    <path
       d="m 43110,34940 20,20 30,70 v 50 l -30,70 -50,50 -40,20 -100,20 h -70 l -90,-20 -50,-20 -50,-50 -20,-70 v -50 l 20,-70 20,-20"
       id="path4579"
       inkscape:connector-curvature="0" />
  </g>
  <g
     style="fill:#008484;fill-opacity:0;stroke:#008484;stroke-width:0;stroke-linecap:round;stroke-linejoin:round;stroke-opacity:1"
     id="g4583"
     transform="translate(-42629.573,-28419.394)" />
  <g
     style="fill:#840000;fill-opacity:0;stroke:#840000;stroke-width:0;stroke-linecap:round;stroke-linejoin:round;stroke-opacity:1"
     id="g4585"
     transform="translate(-42629.573,-28419.394)" />
  <g
     style="fill:#840000;fill-opacity:0;stroke:#840000;stroke-width:80;stroke-linecap:round;stroke-linejoin:round;stroke-opacity:1"
     id="g4589"
     transform="translate(-38075.668,-29897.934)">
    <circle
       cx="71000"
       cy="35000"
       r="200"
       id="circle4587" />
  </g>
  <g
     style="fill:#840000;fill-opacity:0;stroke:#840000;stroke-width:120;stroke-linecap:round;stroke-linejoin:round;stroke-opacity:1"
     id="g4593"
     transform="translate(-38075.668,-29897.934)">
    <circle
       cx="71000"
       cy="35000"
       r="700"
       id="circle4591" />
  </g>
  <g
     style="fill:#840000;fill-opacity:0;stroke:#840000;stroke-width:60;stroke-linecap:round;stroke-linejoin:round;stroke-opacity:1"
     id="g4605"
     transform="translate(-38075.668,-29897.934)">
    <path
       d="M 70800,35000 H 69500"
       id="path4595"
       inkscape:connector-curvature="0" />
    <path
       d="m 70260,34880 h -220"
       id="path4597"
       inkscape:connector-curvature="0" />
    <path
       d="m 70150,34880 v -400 l -40,60 -40,40 -30,20"
       id="path4599"
       inkscape:connector-curvature="0" />
    <path
       d="m 71000,35700 v 1300"
       id="path4601"
       inkscape:connector-curvature="0" />
    <path
       d="m 70520,36460 -20,-20 -20,-30 v -100 l 20,-40 20,-20 40,-10 h 40 l 50,10 230,230 v -240"
       id="path4603"
       inkscape:connector-curvature="0" />
  </g>
  <g
     style="fill:#008484;fill-opacity:0;stroke:#008484;stroke-width:60;stroke-linecap:round;stroke-linejoin:round;stroke-opacity:1"
     id="g4617"
     transform="translate(-38075.668,-29897.934)">
    <path
       d="m 70730,34000 v -500 h 190 l 50,20 20,20 20,50 v 70 l -20,50 -20,20 -50,30 h -190"
       id="path4607"
       inkscape:connector-curvature="0" />
    <path
       d="m 71180,33500 h 310 l -170,190 h 80 l 40,20 30,20 20,50 v 120 l -20,50 -30,20 -40,30 h -150 l -40,-30 -30,-20"
       id="path4609"
       inkscape:connector-curvature="0" />
    <path
       d="m 72030,36070 30,-70 20,-20 50,-20 h 70 l 50,20 20,20 30,50 v 190 h -500 v -170 l 20,-40 20,-30 50,-20 h 50 l 50,20 20,30 20,40 v 170"
       id="path4611"
       inkscape:connector-curvature="0" />
    <path
       d="m 72300,35740 h -500 l 500,-280 h -500"
       id="path4613"
       inkscape:connector-curvature="0" />
    <path
       d="m 72250,34940 20,20 30,70 v 50 l -30,70 -50,50 -40,20 -100,20 h -70 l -90,-20 -50,-20 -50,-50 -20,-70 v -50 l 20,-70 20,-20"
       id="path4615"
       inkscape:connector-curvature="0" />
  </g>
  <g
     style="fill:#008400;fill-opacity:0;stroke:#008400;stroke-width:60;stroke-linecap:round;stroke-linejoin:round;stroke-opacity:1"
     id="g4637"
     transform="translate(-38075.668,-29897.934)">
    <path
       d="m 66000,35000 h 3500"
       id="path4619"
       inkscape:connector-curvature="0" />
    <path
       d="m 66500,35000 v 500"
       id="path4621"
       inkscape:connector-curvature="0" />
    <path
       d="m 58500,35000 h 4500"
       id="path4623"
       inkscape:connector-curvature="0" />
    <path
       d="m 62500,35000 v 500"
       id="path4625"
       inkscape:connector-curvature="0" />
    <path
       d="m 52000,35000 h 4500"
       id="path4627"
       inkscape:connector-curvature="0" />
    <path
       d="m 52500,35000 v 500"
       id="path4629"
       inkscape:connector-curvature="0" />
    <path
       d="m 45500,35000 h 3500"
       id="path4631"
       inkscape:connector-curvature="0" />
    <path
       d="m 48500,35000 v 500"
       id="path4633"
       inkscape:connector-curvature="0" />
    <path
       d="m 56500,35000 v -500"
       id="path4635"
       inkscape:connector-curvature="0" />
  </g>
  <g
     style="fill:#008400;fill-opacity:0;stroke:#008400;stroke-width:0;stroke-linecap:round;stroke-linejoin:round;stroke-opacity:1"
     id="g4639"
     transform="translate(-42629.573,-28419.394)" />
  <g
     style="fill:#008400;fill-opacity:1;stroke:#008400;stroke-width:100;stroke-linecap:round;stroke-linejoin:round;stroke-opacity:1"
     id="g4643"
     transform="translate(-38075.668,-29897.934)">
    <circle
       cx="52500"
       cy="35000"
       r="200"
       id="circle4641" />
  </g>
  <g
     style="fill:#008400;fill-opacity:1;stroke:#008400;stroke-width:60;stroke-linecap:round;stroke-linejoin:round;stroke-opacity:1"
     id="g4645"
     transform="translate(-42629.573,-28419.394)" />
  <g
     style="fill:#008400;fill-opacity:0;stroke:#008400;stroke-width:60;stroke-linecap:round;stroke-linejoin:round;stroke-opacity:1"
     id="g4649"
     transform="translate(-38075.668,-29897.934)">
    <path
       d="m 58500,34500 v 500"
       id="path4647"
       inkscape:connector-curvature="0" />
  </g>
  <g
     style="fill:#008400;fill-opacity:0;stroke:#008400;stroke-width:0;stroke-linecap:round;stroke-linejoin:round;stroke-opacity:1"
     id="g4651"
     transform="translate(-42629.573,-28419.394)" />
  <g
     style="fill:#008400;fill-opacity:1;stroke:#008400;stroke-width:100;stroke-linecap:round;stroke-linejoin:round;stroke-opacity:1"
     id="g4655"
     transform="translate(-38075.668,-29897.934)">
    <circle
       cx="62500"
       cy="35000"
       r="200"
       id="circle4653" />
  </g>
  <g
     style="fill:#008400;fill-opacity:1;stroke:#008400;stroke-width:0;stroke-linecap:round;stroke-linejoin:round;stroke-opacity:1"
     id="g4657"
     transform="translate(-42629.573,-28419.394)" />
  <g
     style="fill:#008400;fill-opacity:1;stroke:#008400;stroke-width:100;stroke-linecap:round;stroke-linejoin:round;stroke-opacity:1"
     id="g4661"
     transform="translate(-38075.668,-29897.934)">
    <circle
       cx="66500"
       cy="35000"
       r="200"
       id="circle4659" />
  </g>
  <g
     style="fill:#008400;fill-opacity:1;stroke:#008400;stroke-width:0;stroke-linecap:round;stroke-linejoin:round;stroke-opacity:1"
     id="g4663"
     transform="translate(-42629.573,-28419.394)" />
  <g
     style="fill:#008400;fill-opacity:1;stroke:#008400;stroke-width:100;stroke-linecap:round;stroke-linejoin:round;stroke-opacity:1"
     id="g4667"
     transform="translate(-38075.668,-29897.934)">
    <circle
       cx="48500"
       cy="35000"
       r="200"
       id="circle4665" />
  </g>
  <g
     style="fill:#008400;fill-opacity:1;stroke:#008400;stroke-width:0;stroke-linecap:round;stroke-linejoin:round;stroke-opacity:1"
     id="g4669"
     transform="translate(-42629.573,-28419.394)" />
  <g
     style="fill:#840000;fill-opacity:1;stroke:#840000;stroke-width:0;stroke-linecap:round;stroke-linejoin:round;stroke-opacity:1"
     id="g4671"
     transform="translate(-42629.573,-28419.394)" />
  <g
     style="fill:#840000;fill-opacity:0;stroke:#840000;stroke-width:60;stroke-linecap:round;stroke-linejoin:round;stroke-opacity:1"
     id="g4675"
     transform="translate(-38075.668,-29897.934)">
    <polyline
       fill="none;"
       points="48500,38500 48500,39000 49000,39000 48500,39500 48000,39000 48500,39000 "
       id="polyline4673" />
  </g>
  <g
     style="fill:#008484;fill-opacity:0;stroke:#008484;stroke-width:60;stroke-linecap:round;stroke-linejoin:round;stroke-opacity:1"
     id="g4683"
     transform="translate(-38075.668,-29897.934)">
    <path
       d="m 48120,39720 -50,-20 h -70 l -70,20 -50,50 -20,50 -20,90 v 70 l 20,100 20,40 50,50 70,30 h 50 l 70,-30 20,-20 v -170 h -90"
       id="path4677"
       inkscape:connector-curvature="0" />
    <path
       d="m 48360,40200 v -500 l 280,500 v -500"
       id="path4679"
       inkscape:connector-curvature="0" />
    <path
       d="m 48880,40200 v -500 h 120 l 70,20 50,50 20,50 20,90 v 70 l -20,100 -20,40 -50,50 -70,30 h -120"
       id="path4681"
       inkscape:connector-curvature="0" />
  </g>
  <g
     style="fill:#008484;fill-opacity:0;stroke:#008484;stroke-width:0;stroke-linecap:round;stroke-linejoin:round;stroke-opacity:1"
     id="g4685"
     transform="translate(-42629.573,-28419.394)" />
  <g
     style="fill:#840000;fill-opacity:0;stroke:#840000;stroke-width:0;stroke-linecap:round;stroke-linejoin:round;stroke-opacity:1"
     id="g4687"
     transform="translate(-42629.573,-28419.394)" />
  <g
     style="fill:#840000;fill-opacity:0;stroke:#840000;stroke-width:60;stroke-linecap:round;stroke-linejoin:round;stroke-opacity:1"
     id="g4691"
     transform="translate(-38075.668,-29897.934)">
    <polyline
       fill="none;"
       points="52500,38500 52500,39000 53000,39000 52500,39500 52000,39000 52500,39000 "
       id="polyline4689" />
  </g>
  <g
     style="fill:#008484;fill-opacity:0;stroke:#008484;stroke-width:60;stroke-linecap:round;stroke-linejoin:round;stroke-opacity:1"
     id="g4699"
     transform="translate(-38075.668,-29897.934)">
    <path
       d="m 52120,39720 -50,-20 h -70 l -70,20 -50,50 -20,50 -20,90 v 70 l 20,100 20,40 50,50 70,30 h 50 l 70,-30 20,-20 v -170 h -90"
       id="path4693"
       inkscape:connector-curvature="0" />
    <path
       d="m 52360,40200 v -500 l 280,500 v -500"
       id="path4695"
       inkscape:connector-curvature="0" />
    <path
       d="m 52880,40200 v -500 h 120 l 70,20 50,50 20,50 20,90 v 70 l -20,100 -20,40 -50,50 -70,30 h -120"
       id="path4697"
       inkscape:connector-curvature="0" />
  </g>
  <g
     style="fill:#008484;fill-opacity:0;stroke:#008484;stroke-width:0;stroke-linecap:round;stroke-linejoin:round;stroke-opacity:1"
     id="g4701"
     transform="translate(-42629.573,-28419.394)" />
  <g
     style="fill:#840000;fill-opacity:0;stroke:#840000;stroke-width:0;stroke-linecap:round;stroke-linejoin:round;stroke-opacity:1"
     id="g4703"
     transform="translate(-42629.573,-28419.394)" />
  <g
     style="fill:#840000;fill-opacity:0;stroke:#840000;stroke-width:60;stroke-linecap:round;stroke-linejoin:round;stroke-opacity:1"
     id="g4707"
     transform="translate(-38075.668,-29897.934)">
    <polyline
       fill="none;"
       points="44000,38500 44000,39000 44500,39000 44000,39500 43500,39000 44000,39000 "
       id="polyline4705" />
  </g>
  <g
     style="fill:#008484;fill-opacity:0;stroke:#008484;stroke-width:60;stroke-linecap:round;stroke-linejoin:round;stroke-opacity:1"
     id="g4715"
     transform="translate(-38075.668,-29897.934)">
    <path
       d="m 43620,39720 -50,-20 h -70 l -70,20 -50,50 -20,50 -20,90 v 70 l 20,100 20,40 50,50 70,30 h 50 l 70,-30 20,-20 v -170 h -90"
       id="path4709"
       inkscape:connector-curvature="0" />
    <path
       d="m 43860,40200 v -500 l 280,500 v -500"
       id="path4711"
       inkscape:connector-curvature="0" />
    <path
       d="m 44380,40200 v -500 h 120 l 70,20 50,50 20,50 20,90 v 70 l -20,100 -20,40 -50,50 -70,30 h -120"
       id="path4713"
       inkscape:connector-curvature="0" />
  </g>
  <g
     style="fill:#008400;fill-opacity:0;stroke:#008400;stroke-width:60;stroke-linecap:round;stroke-linejoin:round;stroke-opacity:1"
     id="g4719"
     transform="translate(-38075.668,-29897.934)">
    <path
       d="m 44000,37000 v 1500"
       id="path4717"
       inkscape:connector-curvature="0" />
  </g>
  <g
     style="fill:#008400;fill-opacity:0;stroke:#008400;stroke-width:0;stroke-linecap:round;stroke-linejoin:round;stroke-opacity:1"
     id="g4721"
     transform="translate(-42629.573,-28419.394)" />
  <g
     style="fill:#840000;fill-opacity:0;stroke:#840000;stroke-width:0;stroke-linecap:round;stroke-linejoin:round;stroke-opacity:1"
     id="g4723"
     transform="translate(-42629.573,-28419.394)" />
  <g
     style="fill:#840000;fill-opacity:0;stroke:#840000;stroke-width:60;stroke-linecap:round;stroke-linejoin:round;stroke-opacity:1"
     id="g4727"
     transform="translate(-38075.668,-29897.934)">
    <polyline
       fill="none;"
       points="62500,38500 62500,39000 63000,39000 62500,39500 62000,39000 62500,39000 "
       id="polyline4725" />
  </g>
  <g
     style="fill:#008484;fill-opacity:0;stroke:#008484;stroke-width:60;stroke-linecap:round;stroke-linejoin:round;stroke-opacity:1"
     id="g4735"
     transform="translate(-38075.668,-29897.934)">
    <path
       d="m 62120,39720 -50,-20 h -70 l -70,20 -50,50 -20,50 -20,90 v 70 l 20,100 20,40 50,50 70,30 h 50 l 70,-30 20,-20 v -170 h -90"
       id="path4729"
       inkscape:connector-curvature="0" />
    <path
       d="m 62360,40200 v -500 l 280,500 v -500"
       id="path4731"
       inkscape:connector-curvature="0" />
    <path
       d="m 62880,40200 v -500 h 120 l 70,20 50,50 20,50 20,90 v 70 l -20,100 -20,40 -50,50 -70,30 h -120"
       id="path4733"
       inkscape:connector-curvature="0" />
  </g>
  <g
     style="fill:#008484;fill-opacity:0;stroke:#008484;stroke-width:0;stroke-linecap:round;stroke-linejoin:round;stroke-opacity:1"
     id="g4737"
     transform="translate(-42629.573,-28419.394)" />
  <g
     style="fill:#840000;fill-opacity:0;stroke:#840000;stroke-width:0;stroke-linecap:round;stroke-linejoin:round;stroke-opacity:1"
     id="g4739"
     transform="translate(-42629.573,-28419.394)" />
  <g
     style="fill:#840000;fill-opacity:0;stroke:#840000;stroke-width:60;stroke-linecap:round;stroke-linejoin:round;stroke-opacity:1"
     id="g4743"
     transform="translate(-38075.668,-29897.934)">
    <polyline
       fill="none;"
       points="66500,38500 66500,39000 67000,39000 66500,39500 66000,39000 66500,39000 "
       id="polyline4741" />
  </g>
  <g
     style="fill:#008484;fill-opacity:0;stroke:#008484;stroke-width:60;stroke-linecap:round;stroke-linejoin:round;stroke-opacity:1"
     id="g4751"
     transform="translate(-38075.668,-29897.934)">
    <path
       d="m 66120,39720 -50,-20 h -70 l -70,20 -50,50 -20,50 -20,90 v 70 l 20,100 20,40 50,50 70,30 h 50 l 70,-30 20,-20 v -170 h -90"
       id="path4745"
       inkscape:connector-curvature="0" />
    <path
       d="m 66360,40200 v -500 l 280,500 v -500"
       id="path4747"
       inkscape:connector-curvature="0" />
    <path
       d="m 66880,40200 v -500 h 120 l 70,20 50,50 20,50 20,90 v 70 l -20,100 -20,40 -50,50 -70,30 h -120"
       id="path4749"
       inkscape:connector-curvature="0" />
  </g>
  <g
     style="fill:#008484;fill-opacity:0;stroke:#008484;stroke-width:0;stroke-linecap:round;stroke-linejoin:round;stroke-opacity:1"
     id="g4753"
     transform="translate(-42629.573,-28419.394)" />
  <g
     style="fill:#840000;fill-opacity:0;stroke:#840000;stroke-width:0;stroke-linecap:round;stroke-linejoin:round;stroke-opacity:1"
     id="g4755"
     transform="translate(-42629.573,-28419.394)" />
  <g
     style="fill:#840000;fill-opacity:0;stroke:#840000;stroke-width:60;stroke-linecap:round;stroke-linejoin:round;stroke-opacity:1"
     id="g4759"
     transform="translate(-38075.668,-29897.934)">
    <polyline
       fill="none;"
       points="71000,38500 71000,39000 71500,39000 71000,39500 70500,39000 71000,39000 "
       id="polyline4757" />
  </g>
  <g
     style="fill:#008484;fill-opacity:0;stroke:#008484;stroke-width:60;stroke-linecap:round;stroke-linejoin:round;stroke-opacity:1"
     id="g4767"
     transform="translate(-38075.668,-29897.934)">
    <path
       d="m 70620,39720 -50,-20 h -70 l -70,20 -50,50 -20,50 -20,90 v 70 l 20,100 20,40 50,50 70,30 h 50 l 70,-30 20,-20 v -170 h -90"
       id="path4761"
       inkscape:connector-curvature="0" />
    <path
       d="m 70860,40200 v -500 l 280,500 v -500"
       id="path4763"
       inkscape:connector-curvature="0" />
    <path
       d="m 71380,40200 v -500 h 120 l 70,20 50,50 20,50 20,90 v 70 l -20,100 -20,40 -50,50 -70,30 h -120"
       id="path4765"
       inkscape:connector-curvature="0" />
  </g>
  <g
     style="fill:#008400;fill-opacity:0;stroke:#008400;stroke-width:60;stroke-linecap:round;stroke-linejoin:round;stroke-opacity:1"
     id="g4771"
     transform="translate(-38075.668,-29897.934)">
    <path
       d="m 71000,37000 v 1500"
       id="path4769"
       inkscape:connector-curvature="0" />
  </g>
  <g
     style="fill:#008400;fill-opacity:0;stroke:#008400;stroke-width:0;stroke-linecap:round;stroke-linejoin:round;stroke-opacity:1"
     id="g4773"
     transform="translate(-42629.573,-28419.394)" />
  <g
     style="fill:#840000;fill-opacity:0;stroke:#840000;stroke-width:0;stroke-linecap:round;stroke-linejoin:round;stroke-opacity:1"
     id="g4775"
     transform="translate(-42629.573,-28419.394)" />
  <g
     style="fill:#840000;fill-opacity:0;stroke:#840000;stroke-width:60;stroke-linecap:round;stroke-linejoin:round;stroke-opacity:1"
     id="g4779"
     transform="translate(-38075.668,-29897.934)">
    <polyline
       fill="none;"
       points="57500,34500 57500,35000 58000,35000 57500,35500 57000,35000 57500,35000 "
       id="polyline4777" />
  </g>
  <g
     style="fill:#008484;fill-opacity:0;stroke:#008484;stroke-width:60;stroke-linecap:round;stroke-linejoin:round;stroke-opacity:1"
     id="g4787"
     transform="translate(-38075.668,-29897.934)">
    <path
       d="m 57120,35720 -50,-20 h -70 l -70,20 -50,50 -20,50 -20,90 v 70 l 20,100 20,40 50,50 70,30 h 50 l 70,-30 20,-20 v -170 h -90"
       id="path4781"
       inkscape:connector-curvature="0" />
    <path
       d="m 57360,36200 v -500 l 280,500 v -500"
       id="path4783"
       inkscape:connector-curvature="0" />
    <path
       d="m 57880,36200 v -500 h 120 l 70,20 50,50 20,50 20,90 v 70 l -20,100 -20,40 -50,50 -70,30 h -120"
       id="path4785"
       inkscape:connector-curvature="0" />
  </g>
  <g
     style="fill:#008484;fill-opacity:0;stroke:#008484;stroke-width:0;stroke-linecap:round;stroke-linejoin:round;stroke-opacity:1"
     id="g4789"
     transform="translate(-42629.573,-28419.394)" />
  <g
     style="fill:#840000;fill-opacity:0;stroke:#840000;stroke-width:0;stroke-linecap:round;stroke-linejoin:round;stroke-opacity:1"
     id="g4791"
     transform="translate(-42629.573,-28419.394)" />
  <g
     style="fill:#008484;fill-opacity:0;stroke:#008484;stroke-width:0;stroke-linecap:round;stroke-linejoin:round;stroke-opacity:1"
     id="g4823"
     transform="translate(-42629.573,-28419.394)" />
  <g
     style="fill:#840000;fill-opacity:0;stroke:#840000;stroke-width:0;stroke-linecap:round;stroke-linejoin:round;stroke-opacity:1"
     id="g4825"
     transform="translate(-42629.573,-28419.394)" />
</svg>
