<?xml version="1.0" standalone="no"?>
 <!DOCTYPE svg PUBLIC "-//W3C//DTD SVG 1.1//EN" 
 "http://www.w3.org/Graphics/SVG/1.1/DTD/svg11.dtd"> 
<svg xmlns="http://www.w3.org/2000/svg" version="1.1" 
    width="29.7002cm" height="21.0007cm" viewBox="0 0 116930 82680 ">
<title>SVG Picture created as XTAL_Set.sch.svg date 2017/08/28 20:37:45 </title>
  <desc>Picture generated by Eeschema-SVG </desc>
<g style="fill:#000000; fill-opacity:1;stroke:#000000; stroke-opacity:1;
stroke-linecap:round; stroke-linejoin:round; "
 transform="translate(0 0) scale(1 1)">
</g>
<g style="fill:#000000; fill-opacity:0.0; 
stroke:#000000; stroke-width:0; stroke-opacity:1; 
stroke-linecap:round; stroke-linejoin:round;">
</g>
<g style="fill:#840000; fill-opacity:0.0; 
stroke:#840000; stroke-width:0; stroke-opacity:1; 
stroke-linecap:round; stroke-linejoin:round;">
</g>
<g style="fill:#840000; fill-opacity:0.0; 
stroke:#840000; stroke-width:100; stroke-opacity:1; 
stroke-linecap:round; stroke-linejoin:round;">
<rect x="48100" y="36000" width="800" height="2000" rx="0" />
</g>
<g style="fill:#840000; fill-opacity:0.0; 
stroke:#840000; stroke-width:60; stroke-opacity:1; 
stroke-linecap:round; stroke-linejoin:round;">
<path d="M48500 36000
L48500 35500
" />
<path d="M48500 38000
L48500 38500
" />
</g>
<g style="fill:#008484; fill-opacity:0.0; 
stroke:#008484; stroke-width:60; stroke-opacity:1; 
stroke-linecap:round; stroke-linejoin:round;">
<path d="M49500 37090
L49260 37250
" />
<path d="M49500 37370
L49000 37370
L49000 37180
L49020 37130
L49040 37110
L49090 37090
L49160 37090
L49210 37110
L49230 37130
L49260 37180
L49260 37370
" />
<path d="M49500 36610
L49500 36890
" />
<path d="M49500 36750
L49000 36750
L49070 36800
L49120 36850
L49140 36890
" />
<path d="M48700 37590
L48700 37870
" />
<path d="M48700 37730
L48200 37730
L48270 37780
L48320 37830
L48340 37870
" />
<path d="M48200 37130
L48200 37370
L48430 37390
L48410 37370
L48390 37320
L48390 37200
L48410 37160
L48430 37130
L48480 37110
L48600 37110
L48650 37130
L48670 37160
L48700 37200
L48700 37320
L48670 37370
L48650 37390
" />
<path d="M48410 36820
L48390 36870
L48360 36890
L48320 36910
L48290 36910
L48240 36890
L48220 36870
L48200 36820
L48200 36720
L48220 36680
L48240 36650
L48290 36630
L48320 36630
L48360 36650
L48390 36680
L48410 36720
L48410 36820
L48430 36870
L48460 36890
L48510 36910
L48600 36910
L48650 36890
L48670 36870
L48700 36820
L48700 36720
L48670 36680
L48650 36650
L48600 36630
L48510 36630
L48460 36650
L48430 36680
L48410 36720
" />
<path d="M48700 36130
L48460 36290
" />
<path d="M48700 36410
L48200 36410
L48200 36220
L48220 36170
L48240 36150
L48290 36130
L48360 36130
L48410 36150
L48430 36170
L48460 36220
L48460 36410
" />
</g>
<g style="fill:#008484; fill-opacity:0.0; 
stroke:#008484; stroke-width:0; stroke-opacity:1; 
stroke-linecap:round; stroke-linejoin:round;">
</g>
<g style="fill:#840000; fill-opacity:0.0; 
stroke:#840000; stroke-width:0; stroke-opacity:1; 
stroke-linecap:round; stroke-linejoin:round;">
</g>
<g style="fill:#840000; fill-opacity:0.0; 
stroke:#840000; stroke-width:100; stroke-opacity:1; 
stroke-linecap:round; stroke-linejoin:round;">
<rect x="49500" y="34600" width="2000" height="800" rx="0" />
</g>
<g style="fill:#840000; fill-opacity:0.0; 
stroke:#840000; stroke-width:60; stroke-opacity:1; 
stroke-linecap:round; stroke-linejoin:round;">
<path d="M51500 35000
L52000 35000
" />
<path d="M49500 35000
L49000 35000
" />
</g>
<g style="fill:#008484; fill-opacity:0.0; 
stroke:#008484; stroke-width:60; stroke-opacity:1; 
stroke-linecap:round; stroke-linejoin:round;">
<path d="M50410 36000
L50250 35760
" />
<path d="M50130 36000
L50130 35500
L50320 35500
L50370 35520
L50390 35540
L50410 35590
L50410 35660
L50390 35710
L50370 35730
L50320 35760
L50130 35760
" />
<path d="M50610 35540
L50630 35520
L50680 35500
L50800 35500
L50840 35520
L50870 35540
L50890 35590
L50890 35640
L50870 35710
L50580 36000
L50890 36000
" />
<path d="M49860 34700
L49770 34700
L49720 34720
L49700 34740
L49650 34820
L49630 34910
L49630 35100
L49650 35150
L49670 35170
L49720 35200
L49820 35200
L49860 35170
L49890 35150
L49910 35100
L49910 34980
L49890 34930
L49860 34910
L49820 34890
L49720 34890
L49670 34910
L49650 34930
L49630 34980
" />
<path d="M50340 34700
L50250 34700
L50200 34720
L50180 34740
L50130 34820
L50110 34910
L50110 35100
L50130 35150
L50150 35170
L50200 35200
L50300 35200
L50340 35170
L50370 35150
L50390 35100
L50390 34980
L50370 34930
L50340 34910
L50300 34890
L50200 34890
L50150 34910
L50130 34930
L50110 34980
" />
<path d="M50890 35200
L50730 34960
" />
<path d="M50610 35200
L50610 34700
L50800 34700
L50850 34720
L50870 34740
L50890 34790
L50890 34860
L50870 34910
L50850 34930
L50800 34960
L50610 34960
" />
<path d="M51350 34700
L51110 34700
L51090 34930
L51110 34910
L51160 34890
L51280 34890
L51320 34910
L51350 34930
L51370 34980
L51370 35100
L51350 35150
L51320 35170
L51280 35200
L51160 35200
L51110 35170
L51090 35150
" />
</g>
<g style="fill:#008484; fill-opacity:0.0; 
stroke:#008484; stroke-width:0; stroke-opacity:1; 
stroke-linecap:round; stroke-linejoin:round;">
</g>
<g style="fill:#840000; fill-opacity:0.0; 
stroke:#840000; stroke-width:0; stroke-opacity:1; 
stroke-linecap:round; stroke-linejoin:round;">
</g>
<g style="fill:#840000; fill-opacity:0.0; 
stroke:#840000; stroke-width:100; stroke-opacity:1; 
stroke-linecap:round; stroke-linejoin:round;">
<rect x="52100" y="36000" width="800" height="2000" rx="0" />
</g>
<g style="fill:#840000; fill-opacity:0.0; 
stroke:#840000; stroke-width:60; stroke-opacity:1; 
stroke-linecap:round; stroke-linejoin:round;">
<path d="M52500 36000
L52500 35500
" />
<path d="M52500 38000
L52500 38500
" />
</g>
<g style="fill:#008484; fill-opacity:0.0; 
stroke:#008484; stroke-width:60; stroke-opacity:1; 
stroke-linecap:round; stroke-linejoin:round;">
<path d="M53500 37090
L53260 37250
" />
<path d="M53500 37370
L53000 37370
L53000 37180
L53020 37130
L53040 37110
L53090 37090
L53160 37090
L53210 37110
L53230 37130
L53260 37180
L53260 37370
" />
<path d="M53000 36920
L53000 36610
L53190 36780
L53190 36700
L53210 36660
L53230 36630
L53280 36610
L53400 36610
L53450 36630
L53470 36660
L53500 36700
L53500 36850
L53470 36890
L53450 36920
" />
<path d="M52700 37590
L52700 37870
" />
<path d="M52700 37730
L52200 37730
L52270 37780
L52320 37830
L52340 37870
" />
<path d="M52360 37160
L52700 37160
" />
<path d="M52170 37280
L52530 37390
L52530 37090
" />
<path d="M52700 36610
L52460 36770
" />
<path d="M52700 36890
L52200 36890
L52200 36700
L52220 36650
L52240 36630
L52290 36610
L52360 36610
L52410 36630
L52430 36650
L52460 36700
L52460 36890
" />
<path d="M52200 36440
L52200 36130
L52390 36300
L52390 36220
L52410 36180
L52430 36150
L52480 36130
L52600 36130
L52650 36150
L52670 36180
L52700 36220
L52700 36370
L52670 36410
L52650 36440
" />
</g>
<g style="fill:#008484; fill-opacity:0.0; 
stroke:#008484; stroke-width:0; stroke-opacity:1; 
stroke-linecap:round; stroke-linejoin:round;">
</g>
<g style="fill:#840000; fill-opacity:0.0; 
stroke:#840000; stroke-width:0; stroke-opacity:1; 
stroke-linecap:round; stroke-linejoin:round;">
</g>
<g style="fill:#840000; fill-opacity:0.0; 
stroke:#840000; stroke-width:100; stroke-opacity:1; 
stroke-linecap:round; stroke-linejoin:round;">
<rect x="62100" y="36000" width="800" height="2000" rx="0" />
</g>
<g style="fill:#840000; fill-opacity:0.0; 
stroke:#840000; stroke-width:60; stroke-opacity:1; 
stroke-linecap:round; stroke-linejoin:round;">
<path d="M62500 36000
L62500 35500
" />
<path d="M62500 38000
L62500 38500
" />
</g>
<g style="fill:#008484; fill-opacity:0.0; 
stroke:#008484; stroke-width:60; stroke-opacity:1; 
stroke-linecap:round; stroke-linejoin:round;">
<path d="M63500 37090
L63260 37250
" />
<path d="M63500 37370
L63000 37370
L63000 37180
L63020 37130
L63040 37110
L63090 37090
L63160 37090
L63210 37110
L63230 37130
L63260 37180
L63260 37370
" />
<path d="M63160 36660
L63500 36660
" />
<path d="M62970 36780
L63330 36890
L63330 36590
" />
<path d="M62700 37590
L62700 37870
" />
<path d="M62700 37730
L62200 37730
L62270 37780
L62320 37830
L62340 37870
" />
<path d="M62360 37160
L62700 37160
" />
<path d="M62170 37280
L62530 37390
L62530 37090
" />
<path d="M62700 36610
L62460 36770
" />
<path d="M62700 36890
L62200 36890
L62200 36700
L62220 36650
L62240 36630
L62290 36610
L62360 36610
L62410 36630
L62430 36650
L62460 36700
L62460 36890
" />
<path d="M62200 36440
L62200 36130
L62390 36300
L62390 36220
L62410 36180
L62430 36150
L62480 36130
L62600 36130
L62650 36150
L62670 36180
L62700 36220
L62700 36370
L62670 36410
L62650 36440
" />
</g>
<g style="fill:#008484; fill-opacity:0.0; 
stroke:#008484; stroke-width:0; stroke-opacity:1; 
stroke-linecap:round; stroke-linejoin:round;">
</g>
<g style="fill:#840000; fill-opacity:0.0; 
stroke:#840000; stroke-width:0; stroke-opacity:1; 
stroke-linecap:round; stroke-linejoin:round;">
</g>
<g style="fill:#840000; fill-opacity:0.0; 
stroke:#840000; stroke-width:100; stroke-opacity:1; 
stroke-linecap:round; stroke-linejoin:round;">
<rect x="63500" y="34600" width="2000" height="800" rx="0" />
</g>
<g style="fill:#840000; fill-opacity:0.0; 
stroke:#840000; stroke-width:60; stroke-opacity:1; 
stroke-linecap:round; stroke-linejoin:round;">
<path d="M65500 35000
L66000 35000
" />
<path d="M63500 35000
L63000 35000
" />
</g>
<g style="fill:#008484; fill-opacity:0.0; 
stroke:#008484; stroke-width:60; stroke-opacity:1; 
stroke-linecap:round; stroke-linejoin:round;">
<path d="M64410 36000
L64250 35760
" />
<path d="M64130 36000
L64130 35500
L64320 35500
L64370 35520
L64390 35540
L64410 35590
L64410 35660
L64390 35710
L64370 35730
L64320 35760
L64130 35760
" />
<path d="M64870 35500
L64630 35500
L64610 35730
L64630 35710
L64680 35690
L64800 35690
L64840 35710
L64870 35730
L64890 35780
L64890 35900
L64870 35950
L64840 35970
L64800 36000
L64680 36000
L64630 35970
L64610 35950
" />
<path d="M63860 34700
L63770 34700
L63720 34720
L63700 34740
L63650 34820
L63630 34910
L63630 35100
L63650 35150
L63670 35170
L63720 35200
L63820 35200
L63860 35170
L63890 35150
L63910 35100
L63910 34980
L63890 34930
L63860 34910
L63820 34890
L63720 34890
L63670 34910
L63650 34930
L63630 34980
" />
<path d="M64340 34700
L64250 34700
L64200 34720
L64180 34740
L64130 34820
L64110 34910
L64110 35100
L64130 35150
L64150 35170
L64200 35200
L64300 35200
L64340 35170
L64370 35150
L64390 35100
L64390 34980
L64370 34930
L64340 34910
L64300 34890
L64200 34890
L64150 34910
L64130 34930
L64110 34980
" />
<path d="M64890 35200
L64730 34960
" />
<path d="M64610 35200
L64610 34700
L64800 34700
L64850 34720
L64870 34740
L64890 34790
L64890 34860
L64870 34910
L64850 34930
L64800 34960
L64610 34960
" />
<path d="M65350 34700
L65110 34700
L65090 34930
L65110 34910
L65160 34890
L65280 34890
L65320 34910
L65350 34930
L65370 34980
L65370 35100
L65350 35150
L65320 35170
L65280 35200
L65160 35200
L65110 35170
L65090 35150
" />
</g>
<g style="fill:#008484; fill-opacity:0.0; 
stroke:#008484; stroke-width:0; stroke-opacity:1; 
stroke-linecap:round; stroke-linejoin:round;">
</g>
<g style="fill:#840000; fill-opacity:0.0; 
stroke:#840000; stroke-width:0; stroke-opacity:1; 
stroke-linecap:round; stroke-linejoin:round;">
</g>
<g style="fill:#840000; fill-opacity:0.0; 
stroke:#840000; stroke-width:100; stroke-opacity:1; 
stroke-linecap:round; stroke-linejoin:round;">
<rect x="66100" y="36000" width="800" height="2000" rx="0" />
</g>
<g style="fill:#840000; fill-opacity:0.0; 
stroke:#840000; stroke-width:60; stroke-opacity:1; 
stroke-linecap:round; stroke-linejoin:round;">
<path d="M66500 36000
L66500 35500
" />
<path d="M66500 38000
L66500 38500
" />
</g>
<g style="fill:#008484; fill-opacity:0.0; 
stroke:#008484; stroke-width:60; stroke-opacity:1; 
stroke-linecap:round; stroke-linejoin:round;">
<path d="M67500 37090
L67260 37250
" />
<path d="M67500 37370
L67000 37370
L67000 37180
L67020 37130
L67040 37110
L67090 37090
L67160 37090
L67210 37110
L67230 37130
L67260 37180
L67260 37370
" />
<path d="M67000 36660
L67000 36750
L67020 36800
L67040 36820
L67120 36870
L67210 36890
L67400 36890
L67450 36870
L67470 36850
L67500 36800
L67500 36700
L67470 36660
L67450 36630
L67400 36610
L67280 36610
L67230 36630
L67210 36660
L67190 36700
L67190 36800
L67210 36850
L67230 36870
L67280 36890
" />
<path d="M66700 37590
L66700 37870
" />
<path d="M66700 37730
L66200 37730
L66270 37780
L66320 37830
L66340 37870
" />
<path d="M66200 37130
L66200 37370
L66430 37390
L66410 37370
L66390 37320
L66390 37200
L66410 37160
L66430 37130
L66480 37110
L66600 37110
L66650 37130
L66670 37160
L66700 37200
L66700 37320
L66670 37370
L66650 37390
" />
<path d="M66410 36820
L66390 36870
L66360 36890
L66320 36910
L66290 36910
L66240 36890
L66220 36870
L66200 36820
L66200 36720
L66220 36680
L66240 36650
L66290 36630
L66320 36630
L66360 36650
L66390 36680
L66410 36720
L66410 36820
L66430 36870
L66460 36890
L66510 36910
L66600 36910
L66650 36890
L66670 36870
L66700 36820
L66700 36720
L66670 36680
L66650 36650
L66600 36630
L66510 36630
L66460 36650
L66430 36680
L66410 36720
" />
<path d="M66700 36130
L66460 36290
" />
<path d="M66700 36410
L66200 36410
L66200 36220
L66220 36170
L66240 36150
L66290 36130
L66360 36130
L66410 36150
L66430 36170
L66460 36220
L66460 36410
" />
</g>
<g style="fill:#008484; fill-opacity:0.0; 
stroke:#008484; stroke-width:0; stroke-opacity:1; 
stroke-linecap:round; stroke-linejoin:round;">
</g>
<g style="fill:#840000; fill-opacity:0.0; 
stroke:#840000; stroke-width:0; stroke-opacity:1; 
stroke-linecap:round; stroke-linejoin:round;">
</g>
<g style="fill:#840000; fill-opacity:0.0; 
stroke:#840000; stroke-width:60; stroke-opacity:1; 
stroke-linecap:round; stroke-linejoin:round;">
<rect x="58450" y="32400" width="100" height="600" rx="0" />
<rect x="57450" y="32400" width="100" height="600" rx="0" />
<rect x="56450" y="32400" width="100" height="600" rx="0" />
<rect x="56000" y="32000" width="3000" height="1000" rx="0" />
<path d="M56500 33000
L56500 34500
" />
<path d="M56380 33610
L56380 33890
" />
<path d="M56380 33750
L55880 33750
L55950 33800
L56000 33850
L56020 33890
" />
<path d="M57500 33000
L57500 34500
" />
<path d="M56920 33890
L56900 33870
L56880 33820
L56880 33700
L56900 33660
L56920 33630
L56970 33610
L57020 33610
L57090 33630
L57380 33920
L57380 33610
" />
<path d="M58500 33000
L58500 34500
" />
<path d="M57880 33920
L57880 33610
L58070 33780
L58070 33700
L58090 33660
L58110 33630
L58160 33610
L58280 33610
L58330 33630
L58350 33660
L58380 33700
L58380 33850
L58350 33890
L58330 33920
" />
</g>
<g style="fill:#008484; fill-opacity:0.0; 
stroke:#008484; stroke-width:60; stroke-opacity:1; 
stroke-linecap:round; stroke-linejoin:round;">
<path d="M55700 32870
L55200 32870
L55200 32680
L55220 32630
L55240 32610
L55290 32590
L55360 32590
L55410 32610
L55430 32630
L55460 32680
L55460 32870
" />
<path d="M55240 32390
L55220 32370
L55200 32320
L55200 32200
L55220 32160
L55240 32130
L55290 32110
L55340 32110
L55410 32130
L55700 32420
L55700 32110
" />
<path d="M55480 31710
L55460 31730
L55390 31760
L55340 31760
L55270 31730
L55220 31680
L55200 31640
L55180 31540
L55180 31470
L55200 31380
L55220 31330
L55270 31280
L55340 31260
L55390 31260
L55460 31280
L55480 31300
" />
<path d="M55790 31260
L55890 31260
L55940 31280
L55980 31330
L56010 31420
L56010 31590
L55980 31680
L55940 31730
L55890 31760
L55790 31760
L55750 31730
L55700 31680
L55680 31590
L55680 31420
L55700 31330
L55750 31280
L55790 31260
" />
<path d="M56220 31760
L56220 31260
L56500 31760
L56500 31260
" />
<path d="M56740 31760
L56740 31260
L57020 31760
L57020 31260
" />
<path d="M57140 31800
L57520 31800
" />
<path d="M57730 31260
L57780 31260
L57830 31280
L57850 31300
L57880 31350
L57900 31450
L57900 31570
L57880 31660
L57850 31710
L57830 31730
L57780 31760
L57730 31760
L57690 31730
L57660 31710
L57640 31660
L57620 31570
L57620 31450
L57640 31350
L57660 31300
L57690 31280
L57730 31260
" />
<path d="M58380 31760
L58100 31760
" />
<path d="M58240 31760
L58240 31260
L58190 31330
L58140 31380
L58100 31400
" />
<path d="M58550 31260
L58880 31760
" />
<path d="M58880 31260
L58550 31760
" />
<path d="M59170 31260
L59220 31260
L59270 31280
L59290 31300
L59320 31350
L59340 31450
L59340 31570
L59320 31660
L59290 31710
L59270 31730
L59220 31760
L59170 31760
L59130 31730
L59100 31710
L59080 31660
L59060 31570
L59060 31450
L59080 31350
L59100 31300
L59130 31280
L59170 31260
" />
<path d="M59510 31260
L59820 31260
L59650 31450
L59730 31450
L59770 31470
L59800 31490
L59820 31540
L59820 31660
L59800 31710
L59770 31730
L59730 31760
L59580 31760
L59540 31730
L59510 31710
" />
</g>
<g style="fill:#008484; fill-opacity:0.0; 
stroke:#008484; stroke-width:0; stroke-opacity:1; 
stroke-linecap:round; stroke-linejoin:round;">
</g>
<g style="fill:#840000; fill-opacity:0.0; 
stroke:#840000; stroke-width:0; stroke-opacity:1; 
stroke-linecap:round; stroke-linejoin:round;">
</g>
<g style="fill:#840000; fill-opacity:0.0; 
stroke:#840000; stroke-width:80; stroke-opacity:1; 
stroke-linecap:round; stroke-linejoin:round;">
<circle cx="44000" cy="35000" r="200" /> 
</g>
<g style="fill:#840000; fill-opacity:0.0; 
stroke:#840000; stroke-width:120; stroke-opacity:1; 
stroke-linecap:round; stroke-linejoin:round;">
<circle cx="44000" cy="35000" r="700" /> 
</g>
<g style="fill:#840000; fill-opacity:0.0; 
stroke:#840000; stroke-width:60; stroke-opacity:1; 
stroke-linecap:round; stroke-linejoin:round;">
<path d="M44200 35000
L45500 35000
" />
<path d="M44960 34880
L44740 34880
" />
<path d="M44850 34880
L44850 34480
L44810 34540
L44770 34580
L44740 34600
" />
<path d="M44000 35700
L44000 37000
" />
<path d="M43520 36460
L43500 36440
L43480 36410
L43480 36310
L43500 36270
L43520 36250
L43560 36240
L43600 36240
L43650 36250
L43880 36480
L43880 36240
" />
</g>
<g style="fill:#008484; fill-opacity:0.0; 
stroke:#008484; stroke-width:60; stroke-opacity:1; 
stroke-linecap:round; stroke-linejoin:round;">
<path d="M43530 34000
L43530 33500
L43720 33500
L43770 33520
L43790 33540
L43810 33590
L43810 33660
L43790 33710
L43770 33730
L43720 33760
L43530 33760
" />
<path d="M44290 34000
L44010 34000
" />
<path d="M44150 34000
L44150 33500
L44100 33570
L44050 33620
L44010 33640
" />
<path d="M42890 36070
L42920 36000
L42940 35980
L42990 35960
L43060 35960
L43110 35980
L43130 36000
L43160 36050
L43160 36240
L42660 36240
L42660 36070
L42680 36030
L42700 36000
L42750 35980
L42800 35980
L42850 36000
L42870 36030
L42890 36070
L42890 36240
" />
<path d="M43160 35740
L42660 35740
L43160 35460
L42660 35460
" />
<path d="M43110 34940
L43130 34960
L43160 35030
L43160 35080
L43130 35150
L43080 35200
L43040 35220
L42940 35240
L42870 35240
L42780 35220
L42730 35200
L42680 35150
L42660 35080
L42660 35030
L42680 34960
L42700 34940
" />
</g>
<g style="fill:#008484; fill-opacity:0.0; 
stroke:#008484; stroke-width:0; stroke-opacity:1; 
stroke-linecap:round; stroke-linejoin:round;">
</g>
<g style="fill:#840000; fill-opacity:0.0; 
stroke:#840000; stroke-width:0; stroke-opacity:1; 
stroke-linecap:round; stroke-linejoin:round;">
</g>
<g style="fill:#840000; fill-opacity:0.0; 
stroke:#840000; stroke-width:80; stroke-opacity:1; 
stroke-linecap:round; stroke-linejoin:round;">
<circle cx="71000" cy="35000" r="200" /> 
</g>
<g style="fill:#840000; fill-opacity:0.0; 
stroke:#840000; stroke-width:120; stroke-opacity:1; 
stroke-linecap:round; stroke-linejoin:round;">
<circle cx="71000" cy="35000" r="700" /> 
</g>
<g style="fill:#840000; fill-opacity:0.0; 
stroke:#840000; stroke-width:60; stroke-opacity:1; 
stroke-linecap:round; stroke-linejoin:round;">
<path d="M70800 35000
L69500 35000
" />
<path d="M70260 34880
L70040 34880
" />
<path d="M70150 34880
L70150 34480
L70110 34540
L70070 34580
L70040 34600
" />
<path d="M71000 35700
L71000 37000
" />
<path d="M70520 36460
L70500 36440
L70480 36410
L70480 36310
L70500 36270
L70520 36250
L70560 36240
L70600 36240
L70650 36250
L70880 36480
L70880 36240
" />
</g>
<g style="fill:#008484; fill-opacity:0.0; 
stroke:#008484; stroke-width:60; stroke-opacity:1; 
stroke-linecap:round; stroke-linejoin:round;">
<path d="M70730 34000
L70730 33500
L70920 33500
L70970 33520
L70990 33540
L71010 33590
L71010 33660
L70990 33710
L70970 33730
L70920 33760
L70730 33760
" />
<path d="M71180 33500
L71490 33500
L71320 33690
L71400 33690
L71440 33710
L71470 33730
L71490 33780
L71490 33900
L71470 33950
L71440 33970
L71400 34000
L71250 34000
L71210 33970
L71180 33950
" />
<path d="M72030 36070
L72060 36000
L72080 35980
L72130 35960
L72200 35960
L72250 35980
L72270 36000
L72300 36050
L72300 36240
L71800 36240
L71800 36070
L71820 36030
L71840 36000
L71890 35980
L71940 35980
L71990 36000
L72010 36030
L72030 36070
L72030 36240
" />
<path d="M72300 35740
L71800 35740
L72300 35460
L71800 35460
" />
<path d="M72250 34940
L72270 34960
L72300 35030
L72300 35080
L72270 35150
L72220 35200
L72180 35220
L72080 35240
L72010 35240
L71920 35220
L71870 35200
L71820 35150
L71800 35080
L71800 35030
L71820 34960
L71840 34940
" />
</g>
<g style="fill:#008400; fill-opacity:0.0; 
stroke:#008400; stroke-width:60; stroke-opacity:1; 
stroke-linecap:round; stroke-linejoin:round;">
<path d="M66000 35000
L69500 35000
" />
<path d="M66500 35000
L66500 35500
" />
<path d="M58500 35000
L63000 35000
" />
<path d="M62500 35000
L62500 35500
" />
<path d="M52000 35000
L56500 35000
" />
<path d="M52500 35000
L52500 35500
" />
<path d="M45500 35000
L49000 35000
" />
<path d="M48500 35000
L48500 35500
" />
<path d="M56500 35000
L56500 34500
" />
</g>
<g style="fill:#008400; fill-opacity:0.0; 
stroke:#008400; stroke-width:0; stroke-opacity:1; 
stroke-linecap:round; stroke-linejoin:round;">
</g>
<g style="fill:#008400; fill-opacity:1.0; 
stroke:#008400; stroke-width:100; stroke-opacity:1; 
stroke-linecap:round; stroke-linejoin:round;">
<circle cx="52500" cy="35000" r="200" /> 
</g>
<g style="fill:#008400; fill-opacity:1.0; 
stroke:#008400; stroke-width:60; stroke-opacity:1; 
stroke-linecap:round; stroke-linejoin:round;">
</g>
<g style="fill:#008400; fill-opacity:0.0; 
stroke:#008400; stroke-width:60; stroke-opacity:1; 
stroke-linecap:round; stroke-linejoin:round;">
<path d="M58500 34500
L58500 35000
" />
</g>
<g style="fill:#008400; fill-opacity:0.0; 
stroke:#008400; stroke-width:0; stroke-opacity:1; 
stroke-linecap:round; stroke-linejoin:round;">
</g>
<g style="fill:#008400; fill-opacity:1.0; 
stroke:#008400; stroke-width:100; stroke-opacity:1; 
stroke-linecap:round; stroke-linejoin:round;">
<circle cx="62500" cy="35000" r="200" /> 
</g>
<g style="fill:#008400; fill-opacity:1.0; 
stroke:#008400; stroke-width:0; stroke-opacity:1; 
stroke-linecap:round; stroke-linejoin:round;">
</g>
<g style="fill:#008400; fill-opacity:1.0; 
stroke:#008400; stroke-width:100; stroke-opacity:1; 
stroke-linecap:round; stroke-linejoin:round;">
<circle cx="66500" cy="35000" r="200" /> 
</g>
<g style="fill:#008400; fill-opacity:1.0; 
stroke:#008400; stroke-width:0; stroke-opacity:1; 
stroke-linecap:round; stroke-linejoin:round;">
</g>
<g style="fill:#008400; fill-opacity:1.0; 
stroke:#008400; stroke-width:100; stroke-opacity:1; 
stroke-linecap:round; stroke-linejoin:round;">
<circle cx="48500" cy="35000" r="200" /> 
</g>
<g style="fill:#008400; fill-opacity:1.0; 
stroke:#008400; stroke-width:0; stroke-opacity:1; 
stroke-linecap:round; stroke-linejoin:round;">
</g>
<g style="fill:#840000; fill-opacity:1.0; 
stroke:#840000; stroke-width:0; stroke-opacity:1; 
stroke-linecap:round; stroke-linejoin:round;">
</g>
<g style="fill:#840000; fill-opacity:0.0; 
stroke:#840000; stroke-width:60; stroke-opacity:1; 
stroke-linecap:round; stroke-linejoin:round;">
<polyline fill="none;"
points="48500,38500
48500,39000
49000,39000
48500,39500
48000,39000
48500,39000
" /> 
</g>
<g style="fill:#008484; fill-opacity:0.0; 
stroke:#008484; stroke-width:60; stroke-opacity:1; 
stroke-linecap:round; stroke-linejoin:round;">
<path d="M48120 39720
L48070 39700
L48000 39700
L47930 39720
L47880 39770
L47860 39820
L47840 39910
L47840 39980
L47860 40080
L47880 40120
L47930 40170
L48000 40200
L48050 40200
L48120 40170
L48140 40150
L48140 39980
L48050 39980
" />
<path d="M48360 40200
L48360 39700
L48640 40200
L48640 39700
" />
<path d="M48880 40200
L48880 39700
L49000 39700
L49070 39720
L49120 39770
L49140 39820
L49160 39910
L49160 39980
L49140 40080
L49120 40120
L49070 40170
L49000 40200
L48880 40200
" />
</g>
<g style="fill:#008484; fill-opacity:0.0; 
stroke:#008484; stroke-width:0; stroke-opacity:1; 
stroke-linecap:round; stroke-linejoin:round;">
</g>
<g style="fill:#840000; fill-opacity:0.0; 
stroke:#840000; stroke-width:0; stroke-opacity:1; 
stroke-linecap:round; stroke-linejoin:round;">
</g>
<g style="fill:#840000; fill-opacity:0.0; 
stroke:#840000; stroke-width:60; stroke-opacity:1; 
stroke-linecap:round; stroke-linejoin:round;">
<polyline fill="none;"
points="52500,38500
52500,39000
53000,39000
52500,39500
52000,39000
52500,39000
" /> 
</g>
<g style="fill:#008484; fill-opacity:0.0; 
stroke:#008484; stroke-width:60; stroke-opacity:1; 
stroke-linecap:round; stroke-linejoin:round;">
<path d="M52120 39720
L52070 39700
L52000 39700
L51930 39720
L51880 39770
L51860 39820
L51840 39910
L51840 39980
L51860 40080
L51880 40120
L51930 40170
L52000 40200
L52050 40200
L52120 40170
L52140 40150
L52140 39980
L52050 39980
" />
<path d="M52360 40200
L52360 39700
L52640 40200
L52640 39700
" />
<path d="M52880 40200
L52880 39700
L53000 39700
L53070 39720
L53120 39770
L53140 39820
L53160 39910
L53160 39980
L53140 40080
L53120 40120
L53070 40170
L53000 40200
L52880 40200
" />
</g>
<g style="fill:#008484; fill-opacity:0.0; 
stroke:#008484; stroke-width:0; stroke-opacity:1; 
stroke-linecap:round; stroke-linejoin:round;">
</g>
<g style="fill:#840000; fill-opacity:0.0; 
stroke:#840000; stroke-width:0; stroke-opacity:1; 
stroke-linecap:round; stroke-linejoin:round;">
</g>
<g style="fill:#840000; fill-opacity:0.0; 
stroke:#840000; stroke-width:60; stroke-opacity:1; 
stroke-linecap:round; stroke-linejoin:round;">
<polyline fill="none;"
points="44000,38500
44000,39000
44500,39000
44000,39500
43500,39000
44000,39000
" /> 
</g>
<g style="fill:#008484; fill-opacity:0.0; 
stroke:#008484; stroke-width:60; stroke-opacity:1; 
stroke-linecap:round; stroke-linejoin:round;">
<path d="M43620 39720
L43570 39700
L43500 39700
L43430 39720
L43380 39770
L43360 39820
L43340 39910
L43340 39980
L43360 40080
L43380 40120
L43430 40170
L43500 40200
L43550 40200
L43620 40170
L43640 40150
L43640 39980
L43550 39980
" />
<path d="M43860 40200
L43860 39700
L44140 40200
L44140 39700
" />
<path d="M44380 40200
L44380 39700
L44500 39700
L44570 39720
L44620 39770
L44640 39820
L44660 39910
L44660 39980
L44640 40080
L44620 40120
L44570 40170
L44500 40200
L44380 40200
" />
</g>
<g style="fill:#008400; fill-opacity:0.0; 
stroke:#008400; stroke-width:60; stroke-opacity:1; 
stroke-linecap:round; stroke-linejoin:round;">
<path d="M44000 37000
L44000 38500
" />
</g>
<g style="fill:#008400; fill-opacity:0.0; 
stroke:#008400; stroke-width:0; stroke-opacity:1; 
stroke-linecap:round; stroke-linejoin:round;">
</g>
<g style="fill:#840000; fill-opacity:0.0; 
stroke:#840000; stroke-width:0; stroke-opacity:1; 
stroke-linecap:round; stroke-linejoin:round;">
</g>
<g style="fill:#840000; fill-opacity:0.0; 
stroke:#840000; stroke-width:60; stroke-opacity:1; 
stroke-linecap:round; stroke-linejoin:round;">
<polyline fill="none;"
points="62500,38500
62500,39000
63000,39000
62500,39500
62000,39000
62500,39000
" /> 
</g>
<g style="fill:#008484; fill-opacity:0.0; 
stroke:#008484; stroke-width:60; stroke-opacity:1; 
stroke-linecap:round; stroke-linejoin:round;">
<path d="M62120 39720
L62070 39700
L62000 39700
L61930 39720
L61880 39770
L61860 39820
L61840 39910
L61840 39980
L61860 40080
L61880 40120
L61930 40170
L62000 40200
L62050 40200
L62120 40170
L62140 40150
L62140 39980
L62050 39980
" />
<path d="M62360 40200
L62360 39700
L62640 40200
L62640 39700
" />
<path d="M62880 40200
L62880 39700
L63000 39700
L63070 39720
L63120 39770
L63140 39820
L63160 39910
L63160 39980
L63140 40080
L63120 40120
L63070 40170
L63000 40200
L62880 40200
" />
</g>
<g style="fill:#008484; fill-opacity:0.0; 
stroke:#008484; stroke-width:0; stroke-opacity:1; 
stroke-linecap:round; stroke-linejoin:round;">
</g>
<g style="fill:#840000; fill-opacity:0.0; 
stroke:#840000; stroke-width:0; stroke-opacity:1; 
stroke-linecap:round; stroke-linejoin:round;">
</g>
<g style="fill:#840000; fill-opacity:0.0; 
stroke:#840000; stroke-width:60; stroke-opacity:1; 
stroke-linecap:round; stroke-linejoin:round;">
<polyline fill="none;"
points="66500,38500
66500,39000
67000,39000
66500,39500
66000,39000
66500,39000
" /> 
</g>
<g style="fill:#008484; fill-opacity:0.0; 
stroke:#008484; stroke-width:60; stroke-opacity:1; 
stroke-linecap:round; stroke-linejoin:round;">
<path d="M66120 39720
L66070 39700
L66000 39700
L65930 39720
L65880 39770
L65860 39820
L65840 39910
L65840 39980
L65860 40080
L65880 40120
L65930 40170
L66000 40200
L66050 40200
L66120 40170
L66140 40150
L66140 39980
L66050 39980
" />
<path d="M66360 40200
L66360 39700
L66640 40200
L66640 39700
" />
<path d="M66880 40200
L66880 39700
L67000 39700
L67070 39720
L67120 39770
L67140 39820
L67160 39910
L67160 39980
L67140 40080
L67120 40120
L67070 40170
L67000 40200
L66880 40200
" />
</g>
<g style="fill:#008484; fill-opacity:0.0; 
stroke:#008484; stroke-width:0; stroke-opacity:1; 
stroke-linecap:round; stroke-linejoin:round;">
</g>
<g style="fill:#840000; fill-opacity:0.0; 
stroke:#840000; stroke-width:0; stroke-opacity:1; 
stroke-linecap:round; stroke-linejoin:round;">
</g>
<g style="fill:#840000; fill-opacity:0.0; 
stroke:#840000; stroke-width:60; stroke-opacity:1; 
stroke-linecap:round; stroke-linejoin:round;">
<polyline fill="none;"
points="71000,38500
71000,39000
71500,39000
71000,39500
70500,39000
71000,39000
" /> 
</g>
<g style="fill:#008484; fill-opacity:0.0; 
stroke:#008484; stroke-width:60; stroke-opacity:1; 
stroke-linecap:round; stroke-linejoin:round;">
<path d="M70620 39720
L70570 39700
L70500 39700
L70430 39720
L70380 39770
L70360 39820
L70340 39910
L70340 39980
L70360 40080
L70380 40120
L70430 40170
L70500 40200
L70550 40200
L70620 40170
L70640 40150
L70640 39980
L70550 39980
" />
<path d="M70860 40200
L70860 39700
L71140 40200
L71140 39700
" />
<path d="M71380 40200
L71380 39700
L71500 39700
L71570 39720
L71620 39770
L71640 39820
L71660 39910
L71660 39980
L71640 40080
L71620 40120
L71570 40170
L71500 40200
L71380 40200
" />
</g>
<g style="fill:#008400; fill-opacity:0.0; 
stroke:#008400; stroke-width:60; stroke-opacity:1; 
stroke-linecap:round; stroke-linejoin:round;">
<path d="M71000 37000
L71000 38500
" />
</g>
<g style="fill:#008400; fill-opacity:0.0; 
stroke:#008400; stroke-width:0; stroke-opacity:1; 
stroke-linecap:round; stroke-linejoin:round;">
</g>
<g style="fill:#840000; fill-opacity:0.0; 
stroke:#840000; stroke-width:0; stroke-opacity:1; 
stroke-linecap:round; stroke-linejoin:round;">
</g>
<g style="fill:#840000; fill-opacity:0.0; 
stroke:#840000; stroke-width:60; stroke-opacity:1; 
stroke-linecap:round; stroke-linejoin:round;">
<polyline fill="none;"
points="57500,34500
57500,35000
58000,35000
57500,35500
57000,35000
57500,35000
" /> 
</g>
<g style="fill:#008484; fill-opacity:0.0; 
stroke:#008484; stroke-width:60; stroke-opacity:1; 
stroke-linecap:round; stroke-linejoin:round;">
<path d="M57120 35720
L57070 35700
L57000 35700
L56930 35720
L56880 35770
L56860 35820
L56840 35910
L56840 35980
L56860 36080
L56880 36120
L56930 36170
L57000 36200
L57050 36200
L57120 36170
L57140 36150
L57140 35980
L57050 35980
" />
<path d="M57360 36200
L57360 35700
L57640 36200
L57640 35700
" />
<path d="M57880 36200
L57880 35700
L58000 35700
L58070 35720
L58120 35770
L58140 35820
L58160 35910
L58160 35980
L58140 36080
L58120 36120
L58070 36170
L58000 36200
L57880 36200
" />
</g>
<g style="fill:#008484; fill-opacity:0.0; 
stroke:#008484; stroke-width:0; stroke-opacity:1; 
stroke-linecap:round; stroke-linejoin:round;">
</g>
<g style="fill:#840000; fill-opacity:0.0; 
stroke:#840000; stroke-width:0; stroke-opacity:1; 
stroke-linecap:round; stroke-linejoin:round;">
</g>
<g style="fill:#840000; fill-opacity:0.0; 
stroke:#840000; stroke-width:60; stroke-opacity:1; 
stroke-linecap:round; stroke-linejoin:round;">
<path d="M109500 67500
L109500 67500
" />
<polyline fill="none;"
points="109500,67500
109500,67000
108750,66500
109500,66000
110250,66500
109500,67000
" /> 
</g>
<g style="fill:#008484; fill-opacity:0.0; 
stroke:#008484; stroke-width:60; stroke-opacity:1; 
stroke-linecap:round; stroke-linejoin:round;">
<path d="M107770 65900
L107770 65400
L107960 65400
L108010 65420
L108030 65440
L108050 65490
L108050 65560
L108030 65610
L108010 65630
L107960 65660
L107770 65660
" />
<path d="M108220 65400
L108340 65900
L108440 65540
L108530 65900
L108650 65400
" />
<path d="M109120 65900
L108960 65660
" />
<path d="M108840 65900
L108840 65400
L109030 65400
L109080 65420
L109100 65440
L109120 65490
L109120 65560
L109100 65610
L109080 65630
L109030 65660
L108840 65660
" />
<path d="M109220 65940
L109600 65940
" />
<path d="M109890 65630
L109720 65630
" />
<path d="M109720 65900
L109720 65400
L109960 65400
" />
<path d="M110390 65900
L110150 65900
L110150 65400
" />
<path d="M110530 65750
L110760 65750
" />
<path d="M110480 65900
L110640 65400
L110810 65900
" />
<path d="M111240 65420
L111190 65400
L111120 65400
L111050 65420
L111000 65470
L110980 65520
L110960 65610
L110960 65680
L110980 65780
L111000 65820
L111050 65870
L111120 65900
L111170 65900
L111240 65870
L111260 65850
L111260 65680
L111170 65680
" />
</g>
<g style="fill:#008484; fill-opacity:0.0; 
stroke:#008484; stroke-width:0; stroke-opacity:1; 
stroke-linecap:round; stroke-linejoin:round;">
</g>
<g style="fill:#840000; fill-opacity:0.0; 
stroke:#840000; stroke-width:0; stroke-opacity:1; 
stroke-linecap:round; stroke-linejoin:round;">
</g>
<g style="fill:#840000; fill-opacity:0.0; 
stroke:#840000; stroke-width:60; stroke-opacity:1; 
stroke-linecap:round; stroke-linejoin:round;">
<polyline fill="none;"
points="109500,67500
109500,68000
110000,68000
109500,68500
109000,68000
109500,68000
" /> 
</g>
<g style="fill:#008484; fill-opacity:0.0; 
stroke:#008484; stroke-width:60; stroke-opacity:1; 
stroke-linecap:round; stroke-linejoin:round;">
<path d="M109120 68720
L109070 68700
L109000 68700
L108930 68720
L108880 68770
L108860 68820
L108840 68910
L108840 68980
L108860 69080
L108880 69120
L108930 69170
L109000 69200
L109050 69200
L109120 69170
L109140 69150
L109140 68980
L109050 68980
" />
<path d="M109360 69200
L109360 68700
L109640 69200
L109640 68700
" />
<path d="M109880 69200
L109880 68700
L110000 68700
L110070 68720
L110120 68770
L110140 68820
L110160 68910
L110160 68980
L110140 69080
L110120 69120
L110070 69170
L110000 69200
L109880 69200
" />
</g> 
</svg>
